<svg width="1020" height="600" xmlns="http://www.w3.org/2000/svg">
 <!-- Created with Method Draw - http://github.com/duopixel/Method-Draw/ -->
 <g>
  <title>background</title>
  <rect fill="#fff" id="canvas_background" height="602" width="1022" y="-1" x="-1"/>
  <g display="none" overflow="visible" y="0" x="0" height="100%" width="100%" id="canvasGrid">
   <rect fill="url(#gridpattern)" stroke-width="0" y="0" x="0" height="100%" width="100%"/>
  </g>
 </g>
 <g>
  <title>Layer 1</title>
  <rect id="svg_3" height="109" width="1021" y="0" x="0" stroke-width="1.5" stroke="#000" fill="#4e80b2"/>
  <text stroke="#000" transform="matrix(1.5893186330795288,0,0,1.703703761100769,-23.278086006641388,-16.888890266418457) " xml:space="preserve" text-anchor="start" font-family="Helvetica, Arial, sans-serif" font-size="24" id="svg_5" y="53.043478" x="37.466396" stroke-width="0" fill="#ffffff">Logo</text>
  <rect id="svg_6" height="38" width="1025" y="111" stroke-opacity="null" stroke-width="1.5" stroke="#000" fill="#a7e2e2"/>
  <rect stroke="#000" id="svg_7" height="6" y="136" x="502.5" stroke-opacity="null" stroke-width="1.5" fill="#55b2b2"/>
  <text stroke="#000" xml:space="preserve" text-anchor="start" font-family="Helvetica, Arial, sans-serif" font-size="24" id="svg_8" y="133" x="193.5" stroke-opacity="null" stroke-width="0" fill="#000000"/>
  <text stroke="#000" transform="matrix(0.9544790570262762,0,0,1,0.4959686421561571,0) " xml:space="preserve" text-anchor="start" font-family="Helvetica, Arial, sans-serif" font-size="24" id="svg_9" y="138" x="393.228419" stroke-opacity="null" stroke-width="0" fill="#ffffff">Item 1</text>
  <path stroke="#000" id="svg_14" d="m957.02607,72.69205l-7.55467,0c-2.22567,0 -4.29736,-3.12447 -4.29736,-6.68059l0,-2.57999l11.76405,0c1.90308,0 3.4469,-2.07217 3.4469,-4.62817c0,-2.55742 -1.54382,-4.62958 -3.4469,-4.62958l-11.76405,0l0,-4.57175c0,-2.58845 -1.44014,-4.68742 -3.34321,-4.68742c-1.90202,0 -3.44584,2.09897 -3.44584,4.68742l0,16.40949c0,8.78803 4.90692,15.90309 10.97224,15.90309l7.55259,0c1.90411,0 3.47517,-2.06371 3.47517,-4.65216s-1.45585,-4.57034 -3.35892,-4.57034z" stroke-opacity="null" stroke-width="1.5" fill="#ffffff"/>
  <path stroke="#000" id="svg_15" d="m888.088698,65.08806c4.245345,0 8.236907,1.947554 11.235406,5.480626c3.005395,3.534688 4.657742,8.244374 4.657742,13.256294l6.544562,0c0,-14.558973 -10.067178,-26.401068 -22.43909,-26.401068l0,7.664148l0.001379,0zm0.008276,-13.589237c15.134559,0 27.444404,14.505637 27.444404,32.334237l6.541804,0c0,-22.055034 -15.246278,-40.000002 -33.987587,-40.000002l0,7.665765l0.001379,0zm9.047909,26.976445c0,2.933452 -2.028883,5.312538 -4.530851,5.312538s-4.530851,-2.379086 -4.530851,-5.312538c0,-2.93022 2.028883,-5.309306 4.530851,-5.309306s4.530851,2.37747 4.530851,5.309306z" stroke-opacity="null" stroke-width="1.5" fill="#ffffff"/>
  <path stroke="#000" id="svg_16" d="m867.987321,44.730676l-38.076922,0c-1.910769,0 -3.461538,1.412923 -3.461538,3.153847l0,34.692317c0,1.740924 1.550769,3.153847 3.461538,3.153847l38.076922,0c1.910769,0 3.461538,-1.412923 3.461538,-3.153847l0,-34.692317c0,-1.740924 -1.550769,-3.153847 -3.461538,-3.153847zm-27.745961,37.303702l-6.923077,0l0,-22.076929l6.923077,0l0,22.076929zm-3.461538,-24.442314c-2.393654,0 -4.326923,-1.764577 -4.326923,-3.942309s1.933269,-3.942309 4.326923,-3.942309s4.326923,1.764577 4.326923,3.942309s-1.933269,3.942309 -4.326923,3.942309zm27.692307,24.442314l-6.923077,0l0,-13.40385c0,-0.630769 -0.6975,-1.663654 -1.189038,-1.912808c-0.649038,-0.332731 -2.1825,-0.361115 -2.881731,-0.053615l-2.852308,1.2505l0,14.119773l-6.923077,0l0,-22.076929l6.923077,0l0,0.968231c2.739808,-1.140116 6.542308,-1.028154 9.121154,0.290154c2.738077,1.397154 4.725,4.516309 4.725,7.414694l0,13.40385z" fill-opacity="null" stroke-opacity="null" stroke-width="1.5" fill="#ffffff"/>
  <text stroke="#000" transform="matrix(4.18971061706543,0,0,0.32434016466140747,-838.6945353746414,88.7331393128261) " xml:space="preserve" text-anchor="start" font-family="Helvetica, Arial, sans-serif" font-size="24" id="svg_21" y="126" x="246.5" stroke-opacity="null" stroke-width="0" fill="#ffffff"/>
  <text stroke="#000" xml:space="preserve" text-anchor="start" font-family="Helvetica, Arial, sans-serif" font-size="24" id="svg_22" y="139" x="32.884184" stroke-opacity="null" stroke-width="0" fill="#ffffff">Menu items</text>
  <rect stroke="#000" id="svg_23" height="377.99999" width="165.000001" y="173" x="18.5" stroke-opacity="null" stroke-width="0" fill="#aad4ff"/>
  <rect stroke="#000" id="svg_24" height="384.000016" width="213.000004" y="170.999981" x="789.5" stroke-opacity="null" stroke-width="0" fill="#aad4ff"/>
  <rect stroke="#000" id="svg_25" height="378.999993" width="577.000003" y="174.000007" x="199.500004" stroke-opacity="null" stroke-width="0" fill="#d4f7f7"/>
  <path stroke="#000" id="svg_26" d="m30.499999,193.833l0,95.000002l141.000003,0l0,-95.000002l-141.000003,0zm118.805558,86.845842l-96.611113,0l0,-78.691682l96.611113,0l0,78.691682zm-73.111113,-47.85305c7.446889,0 13.489,-4.92142 13.489,-10.98706c0,-6.069894 -6.042111,-10.98706 -13.489,-10.98706c-7.452111,0 -13.489,4.92142 -13.489,10.98706c0,6.06564 6.036889,10.98706 13.489,10.98706zm67.894113,9.57061l-25.677667,-20.914973l-36.122112,29.422182l-10.011,-8.15416l-14.371556,11.705919l0,21.969867l86.182335,0l0,-34.028836z" stroke-opacity="null" stroke-width="0" fill="#ffffff"/>
  <text xml:space="preserve" text-anchor="start" font-family="Helvetica, Arial, sans-serif" font-size="21" id="svg_27" y="322" x="67.5" stroke-opacity="null" stroke-width="0" stroke="#000" fill="#ffffff">Text</text>
  <line stroke="#000" fill-opacity="0" stroke-linecap="null" stroke-linejoin="null" id="svg_28" y2="341" x2="170" y1="341" x1="28.499997" stroke-opacity="null" fill="none"/>
  <text stroke="#000" transform="matrix(1.9357751339224762,0,0,1.303030252456665,-106.44277797268208,-108.48483037948608) " xml:space="preserve" text-anchor="start" font-family="Helvetica, Arial, sans-serif" font-size="20" id="svg_29" y="383" x="75.5" stroke-opacity="null" stroke-width="0" fill="#ffffff">Title</text>
  <text xml:space="preserve" text-anchor="start" font-family="Helvetica, Arial, sans-serif" font-size="16" id="svg_30" y="434" x="41.5" stroke-opacity="null" stroke-width="0" stroke="#000" fill="#ffffff">Content</text>
  <line stroke-dasharray="2,2" stroke-linecap="null" stroke-linejoin="null" id="svg_31" y2="448" x2="121.5" y1="448" x1="46.5" stroke-opacity="null" stroke="#000" fill="none"/>
  <line stroke="#000" stroke-linecap="null" stroke-linejoin="null" id="svg_32" y2="459" x2="137.5" y1="459" x1="47.5" stroke-opacity="null" fill="none"/>
  <line stroke-dasharray="2,2" stroke-linecap="null" stroke-linejoin="null" id="svg_33" y2="469" x2="149.5" y1="470" x1="44.5" stroke-opacity="null" stroke="#000" fill="none"/>
  <rect stroke="#000" id="svg_34" height="127" width="546.000046" y="193" x="214.499997" stroke-opacity="null" stroke-width="0" fill="#ffffff"/>
  <text xml:space="preserve" text-anchor="start" font-family="Helvetica, Arial, sans-serif" font-size="18" id="svg_38" y="250" x="249.5" stroke-opacity="null" stroke-width="0" stroke="#000" fill="#000000">Content Section one</text>
  <text xml:space="preserve" text-anchor="start" font-family="Helvetica, Arial, sans-serif" font-size="18" id="svg_40" y="393" x="294.5" stroke-opacity="null" stroke-width="0" stroke="#000" fill="#000000"/>
  <rect stroke="#000" id="svg_39" height="185.99999" width="214" y="345.00001" x="216.5" stroke-opacity="null" stroke-width="0" fill="#ffffff"/>
  <text xml:space="preserve" text-anchor="start" font-family="Helvetica, Arial, sans-serif" font-size="18" id="svg_42" y="398" x="270.5" stroke-opacity="null" stroke-width="0" stroke="#000" fill="#000000"/>
  <text stroke="#000" transform="matrix(1.064249873161316,0,0,1.1066416095960747,-24.83759549818933,-38.31848631908525) " xml:space="preserve" text-anchor="start" font-family="Helvetica, Arial, sans-serif" font-size="18" id="svg_44" y="379" x="246.5" stroke-opacity="null" stroke-width="0" fill="#000000">Content section 2</text>
  <text stroke="#000" transform="matrix(1.2522369174752512,0,0,1,-123.97900908754906,0) " xml:space="preserve" text-anchor="start" font-family="Helvetica, Arial, sans-serif" font-size="18" id="svg_45" y="415" x="293.5" stroke-opacity="null" stroke-width="0" fill="#000000">1. item</text>
  <line stroke-dasharray="2,2" stroke-linecap="null" stroke-linejoin="null" id="svg_46" y2="442" x2="352.5" y1="442" x1="260.5" stroke-opacity="null" stroke="#000" fill="none"/>
  <line stroke-dasharray="2,2" stroke-linecap="null" stroke-linejoin="null" id="svg_47" y2="460" x2="349.5" y1="460" x1="260.5" stroke-opacity="null" stroke="#000" fill="none"/>
  <line stroke-dasharray="2,2" stroke-linecap="null" stroke-linejoin="null" id="svg_48" y2="475" x2="354.5" y1="475" x1="260.5" stroke-opacity="null" stroke="#000" fill="none"/>
  <rect stroke="#000" id="svg_51" height="185" width="309.000013" y="346" x="453.49999" stroke-opacity="null" stroke-width="0" fill="#ffffff"/>
  <text stroke="#000" transform="matrix(1.205196608995763,0,0,1.25,-126.30992910091197,-90.5) " xml:space="preserve" text-anchor="start" font-family="Helvetica, Arial, sans-serif" font-size="18" id="svg_52" y="378" x="501.5" fill-opacity="null" stroke-opacity="null" stroke-width="0" fill="#000000">Content section 3</text>
  <path stroke="#000" id="svg_53" d="m482.050154,395.039452l0,84.00003l258.000009,0l0,-84.00003l-258.000009,0zm217.388896,76.790034l-176.777784,0l0,-69.580037l176.777784,0l0,69.580037zm-133.777782,-42.312185c13.626223,0 24.682001,-4.351573 24.682001,-9.714878c0,-5.367066 -11.055778,-9.714878 -24.682001,-9.714878c-13.635778,0 -24.682001,4.351573 -24.682001,9.714878c0,5.363304 11.046223,9.714878 24.682001,9.714878zm124.231782,8.462437l-46.984668,-18.493246l-66.09578,26.015412l-18.318001,-7.209996l-26.29689,10.350501l0,19.425994l157.695339,0l0,-30.088665z" stroke-opacity="null" stroke-width="0" fill="#cccccc"/>
  <text xml:space="preserve" text-anchor="start" font-family="Helvetica, Arial, sans-serif" font-size="14" id="svg_54" y="506" x="486.5" fill-opacity="null" stroke-opacity="null" stroke-width="0" stroke="#000" fill="#000000">Content</text>
  <text stroke="#000" transform="matrix(2.04891626234091,0,0,1.545454502105713,-923.689986245524,-100.36362838745117) " xml:space="preserve" text-anchor="start" font-family="Helvetica, Arial, sans-serif" font-size="14" id="svg_55" y="200" x="843.5" stroke-opacity="null" stroke-width="0" fill="#ffffff">Content list</text>
  <line stroke="#000" stroke-dasharray="5,5" stroke-linecap="null" stroke-linejoin="null" id="svg_56" y2="310" x2="987" y1="310" x1="805.500006" fill-opacity="null" stroke-opacity="null" fill="none"/>
  <path stroke="#000" id="svg_57" d="m806.459685,226.884117l0,68.999984l69.999954,0l0,-68.999984l-69.999954,0zm58.981443,63.07749l-47.962931,0l0,-57.154997l47.962931,0l0,57.154997zm-36.296272,-34.756417c3.697035,0 6.696662,-3.574504 6.696662,-7.980073c0,-4.408658 -2.999628,-7.980073 -6.696662,-7.980073c-3.699627,0 -6.696662,3.574504 -6.696662,7.980073c0,4.405569 2.997035,7.980073 6.696662,7.980073zm33.706274,6.951283l-12.747769,-15.190871l-17.932951,21.36979l-4.969997,-5.922493l-7.13481,8.502192l0,15.957057l42.785527,0l0,-24.715674z" stroke-opacity="null" stroke-width="0" fill="#ffffff"/>
  <path stroke="#000" id="svg_58" d="m807.454746,322.404096l0,66.999975l69.999943,0l0,-66.999975l-69.999943,0zm58.981434,61.249149l-47.962924,0l0,-55.498323l47.962924,0l0,55.498323zm-36.296267,-33.74898c3.697034,0 6.696661,-3.470895 6.696661,-7.748766c0,-4.280871 -2.999627,-7.748766 -6.696661,-7.748766c-3.699627,0 -6.696661,3.470895 -6.696661,7.748766c0,4.277871 2.997035,7.748766 6.696661,7.748766zm33.706269,6.749796l-12.747767,-14.750554l-17.932948,20.750373l-4.969996,-5.750826l-7.134809,8.25575l0,15.494532l42.785521,0l0,-23.999275z" stroke-opacity="null" stroke-width="0" fill="#ffffff"/>
  <text stroke="#000" transform="matrix(2.0336687791759687,0,0,1.6875,-952.5771035430284,-169.8125) " xml:space="preserve" text-anchor="start" font-family="Helvetica, Arial, sans-serif" font-size="14" id="svg_59" y="260" x="911.5" fill-opacity="null" stroke-opacity="null" stroke-width="0" fill="#ffffff">Text</text>
  <text style="cursor: move;" stroke="#000" transform="matrix(2.2578821106398674,0,0,1.8181818723678589,-1165.6770999621697,-271.63638162612915) " xml:space="preserve" text-anchor="start" font-family="Helvetica, Arial, sans-serif" font-size="14" id="svg_60" y="348" x="915.5" fill-opacity="null" stroke-opacity="null" stroke-width="0" fill="#ffffff">Text</text>
  <line stroke="#000" stroke-dasharray="5,5" stroke-linecap="null" stroke-linejoin="null" id="svg_61" y2="404" x2="985" y1="404" x1="807.499998" fill-opacity="null" stroke-opacity="null" fill="none"/>
  <path stroke="#000" id="svg_62" d="m810.464785,418.919204l0,62.000032l68.000022,0l0,-62.000032l-68.000022,0zm57.296314,56.678367l-46.592607,0l0,-51.356702l46.592607,0l0,51.356702zm-35.25927,-31.230427c3.591409,0 6.505335,-3.211876 6.505335,-7.170506c0,-3.961406 -2.913927,-7.170506 -6.505335,-7.170506c-3.593927,0 -6.505335,3.211876 -6.505335,7.170506c0,3.95863 2.911408,7.170506 6.505335,7.170506zm32.74327,6.246085l-12.383559,-13.649779l-17.420598,19.201855l-4.828002,-5.321665l-6.930965,7.639656l0,14.338236l41.563124,0l0,-22.208304z" stroke-opacity="null" stroke-width="0" fill="#ffffff"/>
  <text stroke="#000" transform="matrix(2.2027335166931152,0,0,2.045454502105713,-1155.7517386972904,-442.22725439071655) " xml:space="preserve" text-anchor="start" font-family="Helvetica, Arial, sans-serif" font-size="14" id="svg_63" y="441.444444" x="933.046019" fill-opacity="null" stroke-opacity="null" stroke-width="0" fill="#ffffff">Text</text>
  <rect stroke="#000" id="svg_65" height="37" width="1024" y="563" x="0" opacity="0.5" stroke-opacity="null" stroke-width="0" fill="#4e80b6"/>
  <line stroke-dasharray="5,5" stroke-linecap="null" stroke-linejoin="null" id="svg_66" y2="497" x2="987.5" y1="497" x1="807.5" fill-opacity="null" stroke-opacity="null" stroke="#000" fill="none"/>
  <text stroke="#000" transform="matrix(1.424242377281189,0,0,1.375,-68.09090155363083,-214.125) " xml:space="preserve" text-anchor="start" font-family="Helvetica, Arial, sans-serif" font-size="14" id="svg_67" y="583.272727" x="65.202127" stroke-opacity="null" stroke-width="0" fill="#ffffff">copywrite</text>
  <text stroke="#000" transform="matrix(1.5368708410666727,0,0,1.3775811195373535,-461.35289253929847,-215.03244757652283) " xml:space="preserve" text-anchor="start" font-family="Helvetica, Arial, sans-serif" font-size="14" id="svg_68" y="585" x="823.5" stroke-opacity="null" stroke-width="0" fill="#ffffff">Terms | Policy</text>
 </g>
</svg>